grf
version=1
nRows=7
nColumns=37
inDegrees=no
endheader
time	ground_force_1_vx	ground_force_1_vy	ground_force_1_vz	ground_force_1_px	ground_force_1_py	ground_force_1_pz	ground_moment_1_mx	ground_moment_1_my	ground_moment_1_mz	ground_force_2_vx	ground_force_2_vy	ground_force_2_vz	ground_force_2_px	ground_force_2_py	ground_force_2_pz	ground_moment_2_mx	ground_moment_2_my	ground_moment_2_mz	ground_force_3_vx	ground_force_3_vy	ground_force_3_vz	ground_force_3_px	ground_force_3_py	ground_force_3_pz	ground_moment_3_mx	ground_moment_3_my	ground_moment_3_mz	ground_force_4_vx	ground_force_4_vy	ground_force_4_vz	ground_force_4_px	ground_force_4_py	ground_force_4_pz	ground_moment_4_mx	ground_moment_4_my	ground_moment_4_mz
      2.92000000	      0.00000000	     -0.00000000	      0.00000000	      0.00000000	      0.00000000	      0.00000000	      0.00000000	      0.00000000	      0.00000000	      2.21810436	     49.53828049	   -350.02542114	   -326.92480221	  -1098.85844743	      0.00000000	      0.00000000	      0.00000000	   9253.13985767	    -16.08068408	    -58.75784543	   -408.71472168	   -309.93061075	   -605.58168011	      0.00000000	      0.00000000	     -0.00000000	 -11694.13167998	    -35.32380917	     16.10456775	     75.82976532	    605.01650162	   -560.25937352	      0.00000000	      0.00000000	      0.00000000	   -148.09640243
      2.93000000	      0.00000000	     -0.00000000	      0.00000000	      0.00000000	      0.00000000	      0.00000000	      0.00000000	      0.00000000	      0.00000000	      1.96263123	     49.03396606	   -348.56436157	   -326.86887490	  -1097.31949183	      0.00000000	      0.00000000	      0.00000000	   8880.73548604	    -15.77235633	    -57.93902450	   -406.53164673	   -310.62984478	   -605.05773076	      0.00000000	      0.00000000	     -0.00000000	 -11578.72385291	    -35.25282908	     16.30319141	     74.54763031	    609.92678936	   -564.77583660	      0.00000000	      0.00000000	     -0.00000000	   -125.71702976
      2.94000000	      0.00000000	     -0.00000000	      0.00000000	      0.00000000	      0.00000000	      0.00000000	      0.00000000	      0.00000000	      0.00000000	      3.16194057	     48.32727432	   -344.57153320	   -328.70585284	  -1096.44531854	      0.00000000	      0.00000000	      0.00000000	   9175.12626805	    -15.34083859	    -56.38586292	   -404.78741455	   -311.17289339	   -605.85923081	      0.00000000	      0.00000000	     -0.00000000	 -11591.57079918	    -35.23409509	     16.42661593	     76.08283234	    605.34644529	   -561.94901952	      0.00000000	      0.00000000	     -0.00000000	   -155.96845392
      2.95000000	      0.00000000	     -0.00000000	      0.00000000	      0.00000000	      0.00000000	      0.00000000	      0.00000000	      0.00000000	      0.00000000	      4.07863379	     47.27665329	   -343.11129761	   -329.70435106	  -1096.90335470	      0.00000000	      0.00000000	      0.00000000	   9036.40089439	    -14.82089529	    -55.64266075	   -405.66546631	   -311.82420594	   -605.43356797	      0.00000000	      0.00000000	     -0.00000000	 -11573.22951136	    -35.08669902	     16.27178117	     74.85208893	    606.54298444	   -566.07642010	      0.00000000	      0.00000000	      0.00000000	    100.63327362
      2.96000000	      0.00000000	     -0.00000000	      0.00000000	      0.00000000	      0.00000000	      0.00000000	      0.00000000	      0.00000000	      0.00000000	      4.82369184	     47.41105652	   -342.81256104	   -329.92266730	  -1096.64268430	      0.00000000	      0.00000000	      0.00000000	   8618.73499806	    -13.90884589	    -54.42482636	   -404.91744995	   -313.38540496	   -606.17099934	      0.00000000	      0.00000000	     -0.00000000	 -11473.06068154	    -35.32970669	     16.10456776	     75.70540619	    602.39807217	   -559.49720378	      0.00000000	      0.00000000	     -0.00000000	    -90.49321777
      2.97000000	      0.00000000	     -0.00000000	      0.00000000	      0.00000000	      0.00000000	      0.00000000	      0.00000000	      0.00000000	      0.00000000	      4.63894653	     46.54525375	   -340.03628540	   -331.25610823	  -1096.37464649	      0.00000000	      0.00000000	      0.00000000	   8504.32938968	    -12.91382213	    -54.04657251	   -402.17285156	   -313.70267989	   -606.85146727	      0.00000000	      0.00000000	     -0.00000000	 -11260.39812075	    -35.33609629	     16.34846805	     75.83102417	    599.36749606	   -562.32854063	      0.00000000	      0.00000000	      0.00000000	    149.77450237
      2.98000000	      0.00000000	     -0.00000000	      0.00000000	      0.00000000	      0.00000000	      0.00000000	      0.00000000	      0.00000000	      0.00000000	      4.57552862	     45.69274521	   -338.29531860	   -330.31448407	  -1096.70648792	      0.00000000	      0.00000000	      0.00000000	   8474.89164193	    -12.29893485	    -53.49755752	   -400.17791748	   -314.70508565	   -608.19006646	      0.00000000	      0.00000000	     -0.00000000	 -11218.43813422	    -35.24012234	     16.11766933	     76.00331116	    601.23217545	   -562.53690950	      0.00000000	      0.00000000	      0.00000000	    103.95418629
